<svg xmlns="http://www.w3.org/2000/svg" width="1920" height="1080"><path d="M886,559L915,338L698,461Z" fill="#d2f19f" stroke="#d2f19f" stroke-width="1.51"/><path d="M915,338L663,266L698,461Z" fill="#e3f69e" stroke="#e3f69e" stroke-width="1.51"/><path d="M915,338L976,204L663,266Z" fill="#e6f89e" stroke="#e6f89e" stroke-width="1.51"/><path d="M1172,242L976,204L915,338Z" fill="#dcf4a0" stroke="#dcf4a0" stroke-width="1.51"/><path d="M698,461L818,779L886,559Z" fill="#c4ef9f" stroke="#c4ef9f" stroke-width="1.51"/><path d="M886,559L1190,592L915,338Z" fill="#c2ed9f" stroke="#c2ed9f" stroke-width="1.51"/><path d="M818,779L1013,760L886,559Z" fill="#b3eda0" stroke="#b3eda0" stroke-width="1.51"/><path d="M698,461L449,707L818,779Z" fill="#caf2a0" stroke="#caf2a0" stroke-width="1.51"/><path d="M663,266L460,469L698,461Z" fill="#e8f89e" stroke="#e8f89e" stroke-width="1.51"/><path d="M1112,734L1190,592L886,559Z" fill="#b0eba0" stroke="#b0eba0" stroke-width="1.51"/><path d="M1190,592L1172,242L915,338Z" fill="#caf19f" stroke="#caf19f" stroke-width="1.51"/><path d="M663,266L473,257L460,469Z" fill="#f5fc9e" stroke="#f5fc9e" stroke-width="1.51"/><path d="M447,205L473,257L663,266Z" fill="#fcfba1" stroke="#fcfba1" stroke-width="1.51"/><path d="M976,204L803,40L663,266Z" fill="#e7ecad" stroke="#e7ecad" stroke-width="1.51"/><path d="M961,-92L803,40L976,204Z" fill="#dddbbe" stroke="#dddbbe" stroke-width="1.51"/><path d="M1013,760L1112,734L886,559Z" fill="#aeeca0" stroke="#aeeca0" stroke-width="1.51"/><path d="M803,40L447,205L663,266Z" fill="#f3f0ad" stroke="#f3f0ad" stroke-width="1.51"/><path d="M473,257L354,382L460,469Z" fill="#f3f8a2" stroke="#f3f8a2" stroke-width="1.51"/><path d="M460,469L449,707L698,461Z" fill="#dbf49e" stroke="#dbf49e" stroke-width="1.51"/><path d="M328,630L449,707L460,469Z" fill="#d9f0a4" stroke="#d9f0a4" stroke-width="1.51"/><path d="M818,779L1024,914L1013,760Z" fill="#a3eba2" stroke="#a3eba2" stroke-width="1.51"/><path d="M1013,760L1024,914L1112,734Z" fill="#9feca1" stroke="#9feca1" stroke-width="1.51"/><path d="M449,707L676,883L818,779Z" fill="#bdf2a1" stroke="#bdf2a1" stroke-width="1.51"/><path d="M447,205L354,382L473,257Z" fill="#fdfba2" stroke="#fdfba2" stroke-width="1.51"/><path d="M1172,242L1233,170L976,204Z" fill="#d6eda8" stroke="#d6eda8" stroke-width="1.51"/><path d="M1290,153L1233,170L1172,242Z" fill="#d1ecab" stroke="#d1ecab" stroke-width="1.51"/><path d="M1190,592L1294,615L1172,242Z" fill="#b7eea0" stroke="#b7eea0" stroke-width="1.51"/><path d="M1112,734L1294,615L1190,592Z" fill="#a7eca1" stroke="#a7eca1" stroke-width="1.51"/><path d="M676,883L1024,914L818,779Z" fill="#a8eda3" stroke="#a8eda3" stroke-width="1.51"/><path d="M1112,734L1351,888L1294,615Z" fill="#99eca2" stroke="#99eca2" stroke-width="1.51"/><path d="M354,382L328,630L460,469Z" fill="#e4f0a6" stroke="#e4f0a6" stroke-width="1.51"/><path d="M449,707L395,831L676,883Z" fill="#c6f6a0" stroke="#c6f6a0" stroke-width="1.51"/><path d="M1233,170L961,-92L976,204Z" fill="#d7e0b8" stroke="#d7e0b8" stroke-width="1.51"/><path d="M1438,266L1290,153L1172,242Z" fill="#cdf0a7" stroke="#cdf0a7" stroke-width="1.51"/><path d="M1228,-161L961,-92L1233,170Z" fill="#cfd5c5" stroke="#cfd5c5" stroke-width="1.51"/><path d="M803,40L595,-165L447,205Z" fill="#f0dec1" stroke="#f0dec1" stroke-width="1.51"/><path d="M328,630L395,831L449,707Z" fill="#cef0a7" stroke="#cef0a7" stroke-width="1.51"/><path d="M961,-92L750,-179L803,40Z" fill="#e0d6c5" stroke="#e0d6c5" stroke-width="1.51"/><path d="M1294,615L1438,266L1172,242Z" fill="#c1f2a0" stroke="#c1f2a0" stroke-width="1.51"/><path d="M447,205L239,142L354,382Z" fill="#fdf2ad" stroke="#fdf2ad" stroke-width="1.51"/><path d="M750,-179L595,-165L803,40Z" fill="#e9d9c4" stroke="#e9d9c4" stroke-width="1.51"/><path d="M395,831L599,1047L676,883Z" fill="#b7f1a5" stroke="#b7f1a5" stroke-width="1.51"/><path d="M676,883L951,1125L1024,914Z" fill="#98e8a8" stroke="#98e8a8" stroke-width="1.51"/><path d="M1024,914L1351,888L1112,734Z" fill="#93eba4" stroke="#93eba4" stroke-width="1.51"/><path d="M951,1125L1104,1030L1024,914Z" fill="#87e5aa" stroke="#87e5aa" stroke-width="1.51"/><path d="M354,382L66,405L328,630Z" fill="#e5e7b1" stroke="#e5e7b1" stroke-width="1.51"/><path d="M204,90L239,142L307,-136Z" fill="#f4d1d2" stroke="#f4d1d2" stroke-width="1.51"/><path d="M1294,615L1572,469L1438,266Z" fill="#b0efa1" stroke="#b0efa1" stroke-width="1.51"/><path d="M1104,1030L1351,888L1024,914Z" fill="#88e8a8" stroke="#88e8a8" stroke-width="1.51"/><path d="M1351,888L1470,697L1294,615Z" fill="#93eca2" stroke="#93eca2" stroke-width="1.51"/><path d="M1104,1030L1340,1247L1351,888Z" fill="#71e4ac" stroke="#71e4ac" stroke-width="1.51"/><path d="M599,1047L951,1125L676,883Z" fill="#9ee9a9" stroke="#9ee9a9" stroke-width="1.51"/><path d="M189,907L395,831L328,630Z" fill="#c7eaae" stroke="#c7eaae" stroke-width="1.51"/><path d="M189,907L350,952L395,831Z" fill="#bde8b1" stroke="#bde8b1" stroke-width="1.51"/><path d="M395,831L350,952L599,1047Z" fill="#b9efa9" stroke="#b9efa9" stroke-width="1.51"/><path d="M239,142L66,405L354,382Z" fill="#f8ebb3" stroke="#f8ebb3" stroke-width="1.51"/><path d="M307,-136L239,142L447,205Z" fill="#f8dcc6" stroke="#f8dcc6" stroke-width="1.51"/><path d="M961,-92L1017,-274L750,-179Z" fill="#dbd5c4" stroke="#dbd5c4" stroke-width="1.51"/><path d="M1290,153L1228,-161L1233,170Z" fill="#ccdcbe" stroke="#ccdcbe" stroke-width="1.51"/><path d="M1294,-149L1228,-161L1290,153Z" fill="#c9d5c6" stroke="#c9d5c6" stroke-width="1.51"/><path d="M951,1125L1089,1122L1104,1030Z" fill="#7ee3ac" stroke="#7ee3ac" stroke-width="1.51"/><path d="M1228,-161L1017,-274L961,-92Z" fill="#d3d4c5" stroke="#d3d4c5" stroke-width="1.51"/><path d="M750,-179L603,-324L595,-165Z" fill="#eddac4" stroke="#eddac4" stroke-width="1.51"/><path d="M374,1147L627,1153L599,1047Z" fill="#a8ecab" stroke="#a8ecab" stroke-width="1.51"/><path d="M599,1047L774,1225L951,1125Z" fill="#95e7ac" stroke="#95e7ac" stroke-width="1.51"/><path d="M951,1125L935,1307L1089,1122Z" fill="#83e3ac" stroke="#83e3ac" stroke-width="1.51"/><path d="M1470,697L1572,469L1294,615Z" fill="#9eeca1" stroke="#9eeca1" stroke-width="1.51"/><path d="M1518,-62L1294,-149L1290,153Z" fill="#c4d6c6" stroke="#c4d6c6" stroke-width="1.51"/><path d="M1228,-161L1141,-320L1017,-274Z" fill="#d0d5c5" stroke="#d0d5c5" stroke-width="1.51"/><path d="M1518,-62L1290,153L1438,266Z" fill="#c5e4b6" stroke="#c5e4b6" stroke-width="1.51"/><path d="M1470,697L1532,713L1572,469Z" fill="#95eaa4" stroke="#95eaa4" stroke-width="1.51"/><path d="M1351,888L1532,713L1470,697Z" fill="#8aeca3" stroke="#8aeca3" stroke-width="1.51"/><path d="M-40,303L66,405L239,142Z" fill="#f8e3bd" stroke="#f8e3bd" stroke-width="1.51"/><path d="M1017,-274L789,-334L750,-179Z" fill="#dfd6c5" stroke="#dfd6c5" stroke-width="1.51"/><path d="M595,-165L307,-136L447,205Z" fill="#f8dbc7" stroke="#f8dbc7" stroke-width="1.51"/><path d="M603,-324L307,-136L595,-165Z" fill="#f7ddc4" stroke="#f7ddc4" stroke-width="1.51"/><path d="M627,1153L774,1225L599,1047Z" fill="#9de9ac" stroke="#9de9ac" stroke-width="1.51"/><path d="M66,405L44,537L328,630Z" fill="#dddfb9" stroke="#dddfb9" stroke-width="1.51"/><path d="M350,952L374,1147L599,1047Z" fill="#afebad" stroke="#afebad" stroke-width="1.51"/><path d="M59,752L189,907L328,630Z" fill="#c8e2b7" stroke="#c8e2b7" stroke-width="1.51"/><path d="M789,-334L603,-324L750,-179Z" fill="#e9d9c4" stroke="#e9d9c4" stroke-width="1.51"/><path d="M1017,-274L1141,-320L789,-334Z" fill="#d7d4c4" stroke="#d7d4c4" stroke-width="1.51"/><path d="M1411,-268L1141,-320L1228,-161Z" fill="#c9d5c5" stroke="#c9d5c5" stroke-width="1.51"/><path d="M1572,469L1630,241L1438,266Z" fill="#baf2a3" stroke="#baf2a3" stroke-width="1.51"/><path d="M1804,394L1630,241L1572,469Z" fill="#adeea6" stroke="#adeea6" stroke-width="1.51"/><path d="M44,537L59,752L328,630Z" fill="#d2dfba" stroke="#d2dfba" stroke-width="1.51"/><path d="M189,907L374,1147L350,952Z" fill="#b2e4b6" stroke="#b2e4b6" stroke-width="1.51"/><path d="M627,1153L764,1365L774,1225Z" fill="#99e8ac" stroke="#99e8ac" stroke-width="1.51"/><path d="M462,1313L374,1147L392,1336Z" fill="#abe9b1" stroke="#abe9b1" stroke-width="1.51"/><path d="M1638,67L1518,-62L1438,266Z" fill="#bedfbc" stroke="#bedfbc" stroke-width="1.51"/><path d="M1294,-149L1411,-268L1228,-161Z" fill="#c7d6c6" stroke="#c7d6c6" stroke-width="1.51"/><path d="M307,-136L179,-138L204,90Z" fill="#f3ccd7" stroke="#f3ccd7" stroke-width="1.51"/><path d="M204,90L-40,303L239,142Z" fill="#f8dbc6" stroke="#f8dbc6" stroke-width="1.51"/><path d="M245,-273L179,-138L307,-136Z" fill="#f3cdd6" stroke="#f3cdd6" stroke-width="1.51"/><path d="M764,1365L935,1307L774,1225Z" fill="#90e6ac" stroke="#90e6ac" stroke-width="1.51"/><path d="M774,1225L935,1307L951,1125Z" fill="#8be4ac" stroke="#8be4ac" stroke-width="1.51"/><path d="M1340,1247L1582,915L1351,888Z" fill="#6ae5ab" stroke="#6ae5ab" stroke-width="1.51"/><path d="M1351,888L1582,915L1532,713Z" fill="#7eeaa5" stroke="#7eeaa5" stroke-width="1.51"/><path d="M66,405L-48,534L44,537Z" fill="#ded7c3" stroke="#ded7c3" stroke-width="1.51"/><path d="M44,537L-48,534L59,752Z" fill="#d2d6c3" stroke="#d2d6c3" stroke-width="1.51"/><path d="M-163,145L-40,303L204,90Z" fill="#f5d2d1" stroke="#f5d2d1" stroke-width="1.51"/><path d="M-40,303L-48,534L66,405Z" fill="#e7d8c4" stroke="#e7d8c4" stroke-width="1.51"/><path d="M1630,241L1638,67L1438,266Z" fill="#bfeaaf" stroke="#bfeaaf" stroke-width="1.51"/><path d="M1532,713L1750,496L1572,469Z" fill="#96e8a5" stroke="#96e8a5" stroke-width="1.51"/><path d="M1340,1247L1104,1030L1089,1122Z" fill="#74e3ad" stroke="#74e3ad" stroke-width="1.51"/><path d="M1583,-214L1411,-268L1518,-62Z" fill="#bdd5c7" stroke="#bdd5c7" stroke-width="1.51"/><path d="M1518,-62L1411,-268L1294,-149Z" fill="#c2d6c6" stroke="#c2d6c6" stroke-width="1.51"/><path d="M-70,-164L-163,145L204,90Z" fill="#eebee5" stroke="#eebee5" stroke-width="1.51"/><path d="M603,-324L245,-273L307,-136Z" fill="#f6d7cc" stroke="#f6d7cc" stroke-width="1.51"/><path d="M1833,683L1750,496L1532,713Z" fill="#89e7a8" stroke="#89e7a8" stroke-width="1.51"/><path d="M1630,241L1798,135L1638,67Z" fill="#b7e3b7" stroke="#b7e3b7" stroke-width="1.51"/><path d="M462,1313L764,1365L627,1153Z" fill="#a1eaac" stroke="#a1eaac" stroke-width="1.51"/><path d="M374,1147L462,1313L627,1153Z" fill="#abedab" stroke="#abedab" stroke-width="1.51"/><path d="M392,1336L374,1147L138,1210Z" fill="#aae2b9" stroke="#aae2b9" stroke-width="1.51"/><path d="M1229,1474L1340,1247L1089,1122Z" fill="#71e3ad" stroke="#71e3ad" stroke-width="1.51"/><path d="M1445,1304L1340,1247L1229,1474Z" fill="#67e3ad" stroke="#67e3ad" stroke-width="1.51"/><path d="M1750,496L1804,394L1572,469Z" fill="#a0eaa7" stroke="#a0eaa7" stroke-width="1.51"/><path d="M2095,588L1804,394L1750,496Z" fill="#8ee5ab" stroke="#8ee5ab" stroke-width="1.51"/><path d="M1766,-35L1583,-214L1518,-62Z" fill="#b5d3ca" stroke="#b5d3ca" stroke-width="1.51"/><path d="M1766,-35L1518,-62L1638,67Z" fill="#b4d2ca" stroke="#b4d2ca" stroke-width="1.51"/><path d="M462,1313L392,1336L764,1365Z" fill="#a7ecab" stroke="#a7ecab" stroke-width="1.51"/><path d="M138,1210L374,1147L189,907Z" fill="#a8ddbe" stroke="#a8ddbe" stroke-width="1.51"/><path d="M245,-273L139,-283L179,-138Z" fill="#f1c9da" stroke="#f1c9da" stroke-width="1.51"/><path d="M603,-324L139,-283L245,-273Z" fill="#f5d3d0" stroke="#f5d3d0" stroke-width="1.51"/><path d="M1804,394L1798,135L1630,241Z" fill="#b6efa9" stroke="#b6efa9" stroke-width="1.51"/><path d="M-142,807L-42,984L59,752Z" fill="#bcd4c7" stroke="#bcd4c7" stroke-width="1.51"/><path d="M59,752L-42,984L189,907Z" fill="#bad8c4" stroke="#bad8c4" stroke-width="1.51"/><path d="M1582,915L1833,683L1532,713Z" fill="#7be8a7" stroke="#7be8a7" stroke-width="1.51"/><path d="M1804,394L1950,287L1798,135Z" fill="#b0efaa" stroke="#b0efaa" stroke-width="1.51"/><path d="M1791,987L1833,683L1582,915Z" fill="#66e5ac" stroke="#66e5ac" stroke-width="1.51"/><path d="M-40,303L-251,535L-48,534Z" fill="#e2d7c4" stroke="#e2d7c4" stroke-width="1.51"/><path d="M-48,534L-142,807L59,752Z" fill="#cad5c5" stroke="#cad5c5" stroke-width="1.51"/><path d="M-70,-164L204,90L179,-138Z" fill="#efc3e1" stroke="#efc3e1" stroke-width="1.51"/><path d="M-42,984L138,1210L189,907Z" fill="#abd6c7" stroke="#abd6c7" stroke-width="1.51"/><path d="M-251,535L-142,807L-48,534Z" fill="#d1d5c5" stroke="#d1d5c5" stroke-width="1.51"/><path d="M1798,135L1766,-35L1638,67Z" fill="#b1d7c5" stroke="#b1d7c5" stroke-width="1.51"/><path d="M1340,1247L1666,1199L1582,915Z" fill="#55e1b0" stroke="#55e1b0" stroke-width="1.51"/><path d="M1229,1474L1089,1122L935,1307Z" fill="#7ce3ac" stroke="#7ce3ac" stroke-width="1.51"/><path d="M139,-283L-70,-164L179,-138Z" fill="#efc1e2" stroke="#efc1e2" stroke-width="1.51"/><path d="M-314,351L-251,535L-40,303Z" fill="#e9d9c4" stroke="#e9d9c4" stroke-width="1.51"/><path d="M-163,145L-228,172L-40,303Z" fill="#f6d5cd" stroke="#f6d5cd" stroke-width="1.51"/><path d="M-270,-17L-228,172L-163,145Z" fill="#f1c8db" stroke="#f1c8db" stroke-width="1.51"/><path d="M1666,1199L1791,987L1582,915Z" fill="#4de0b2" stroke="#4de0b2" stroke-width="1.51"/><path d="M-87,1454L1229,1474L764,1365Z" fill="#a0eaac" stroke="#a0eaac" stroke-width="1.51"/><path d="M764,1365L1229,1474L935,1307Z" fill="#83e3ac" stroke="#83e3ac" stroke-width="1.51"/><path d="M1583,1375L1666,1199L1445,1304Z" fill="#50e0b1" stroke="#50e0b1" stroke-width="1.51"/><path d="M1445,1304L1666,1199L1340,1247Z" fill="#5ae2af" stroke="#5ae2af" stroke-width="1.51"/><path d="M2095,588L1750,496L1833,683Z" fill="#81e3ac" stroke="#81e3ac" stroke-width="1.51"/><path d="M2095,588L1950,287L1804,394Z" fill="#96e7ac" stroke="#96e7ac" stroke-width="1.51"/><path d="M1798,135L2040,-30L1766,-35Z" fill="#a7d1cc" stroke="#a7d1cc" stroke-width="1.51"/><path d="M392,1336L-87,1454L764,1365Z" fill="#aae5b5" stroke="#aae5b5" stroke-width="1.51"/><path d="M138,1210L122,1324L392,1336Z" fill="#a8dcc0" stroke="#a8dcc0" stroke-width="1.51"/><path d="M-74,1199L122,1324L138,1210Z" fill="#a5d2cb" stroke="#a5d2cb" stroke-width="1.51"/><path d="M-74,1199L138,1210L-42,984Z" fill="#a3cecf" stroke="#a3cecf" stroke-width="1.51"/><path d="M-228,172L-314,351L-40,303Z" fill="#f8ddc4" stroke="#f8ddc4" stroke-width="1.51"/><path d="M-270,-17L-314,351L-228,172Z" fill="#f4d1d2" stroke="#f4d1d2" stroke-width="1.51"/><path d="M-312,828L-142,807L-251,535Z" fill="#c8d5c6" stroke="#c8d5c6" stroke-width="1.51"/><path d="M-312,828L-42,984L-142,807Z" fill="#b9d4c8" stroke="#b9d4c8" stroke-width="1.51"/><path d="M-383,1027L-74,1199L-42,984Z" fill="#a4cecf" stroke="#a4cecf" stroke-width="1.51"/><path d="M-70,-164L-270,-17L-163,145Z" fill="#ecbbe8" stroke="#ecbbe8" stroke-width="1.51"/><path d="M1229,1474L1583,1375L1445,1304Z" fill="#60e3ae" stroke="#60e3ae" stroke-width="1.51"/><path d="M2011,938L2016,830L1791,987Z" fill="#48dfb2" stroke="#48dfb2" stroke-width="1.51"/><path d="M-70,-164L-171,-234L-270,-17Z" fill="#ecbbe8" stroke="#ecbbe8" stroke-width="1.51"/><path d="M139,-283L-171,-234L-70,-164Z" fill="#ecbbe8" stroke="#ecbbe8" stroke-width="1.51"/><path d="M-314,351L-312,828L-251,535Z" fill="#d5d4c4" stroke="#d5d4c4" stroke-width="1.51"/><path d="M1996,-366L1748,-373L1766,-35Z" fill="#a8cfce" stroke="#a8cfce" stroke-width="1.51"/><path d="M1766,-35L1748,-373L1583,-214Z" fill="#b1d1cc" stroke="#b1d1cc" stroke-width="1.51"/><path d="M1583,-214L1748,-373L1411,-268Z" fill="#b8d4c9" stroke="#b8d4c9" stroke-width="1.51"/><path d="M1411,-268L1748,-373L1141,-320Z" fill="#c0d6c6" stroke="#c0d6c6" stroke-width="1.51"/><path d="M1141,-320L1748,-373L789,-334Z" fill="#cbd5c5" stroke="#cbd5c5" stroke-width="1.51"/><path d="M1791,987L2016,830L1833,683Z" fill="#5ee2ae" stroke="#5ee2ae" stroke-width="1.51"/><path d="M1871,1162L1791,987L1666,1199Z" fill="#32dcb5" stroke="#32dcb5" stroke-width="1.51"/><path d="M1790,1339L1871,1162L1666,1199Z" fill="#32dcb5" stroke="#32dcb5" stroke-width="1.51"/><path d="M139,-283L-255,-221L-171,-234Z" fill="#ecbbe8" stroke="#ecbbe8" stroke-width="1.51"/><path d="M-171,-234L-255,-221L-270,-17Z" fill="#ecbbe8" stroke="#ecbbe8" stroke-width="1.51"/><path d="M-270,-17L-255,-221L-314,351Z" fill="#eec0e3" stroke="#eec0e3" stroke-width="1.51"/><path d="M1950,287L2090,208L1798,135Z" fill="#abe6b4" stroke="#abe6b4" stroke-width="1.51"/><path d="M2016,830L2095,588L1833,683Z" fill="#6fe3ad" stroke="#6fe3ad" stroke-width="1.51"/><path d="M2180,402L2090,208L1950,287Z" fill="#a8ecab" stroke="#a8ecab" stroke-width="1.51"/><path d="M2285,787L2159,527L2095,588Z" fill="#79e3ac" stroke="#79e3ac" stroke-width="1.51"/><path d="M1871,1162L2011,938L1791,987Z" fill="#2edcb6" stroke="#2edcb6" stroke-width="1.51"/><path d="M2090,208L2040,-30L1798,135Z" fill="#a7dac2" stroke="#a7dac2" stroke-width="1.51"/><path d="M1871,1162L2097,1196L2011,938Z" fill="#00dab8" stroke="#00dab8" stroke-width="1.51"/><path d="M1583,1375L1790,1339L1666,1199Z" fill="#42deb3" stroke="#42deb3" stroke-width="1.51"/><path d="M1931,1349L1790,1339L1583,1375Z" fill="#33ddb5" stroke="#33ddb5" stroke-width="1.51"/><path d="M2090,208L2299,39L2040,-30Z" fill="#a6d6c6" stroke="#a6d6c6" stroke-width="1.51"/><path d="M2095,588L2159,527L1950,287Z" fill="#90e5ac" stroke="#90e5ac" stroke-width="1.51"/><path d="M2285,787L2095,588L2016,830Z" fill="#6ae3ad" stroke="#6ae3ad" stroke-width="1.51"/><path d="M-312,828L-383,1027L-42,984Z" fill="#b2d2cb" stroke="#b2d2cb" stroke-width="1.51"/><path d="M-74,1199L-87,1454L122,1324Z" fill="#a3ced0" stroke="#a3ced0" stroke-width="1.51"/><path d="M-314,351L-383,1027L-312,828Z" fill="#c7d6c6" stroke="#c7d6c6" stroke-width="1.51"/><path d="M2159,527L2180,402L1950,287Z" fill="#99e8ac" stroke="#99e8ac" stroke-width="1.51"/><path d="M-357,1240L-87,1454L-74,1199Z" fill="#a3ced0" stroke="#a3ced0" stroke-width="1.51"/><path d="M122,1324L-87,1454L392,1336Z" fill="#a6d7c5" stroke="#a6d7c5" stroke-width="1.51"/><path d="M2040,-30L1996,-366L1766,-35Z" fill="#a3ced0" stroke="#a3ced0" stroke-width="1.51"/><path d="M2274,-218L1996,-366L2040,-30Z" fill="#a3ced0" stroke="#a3ced0" stroke-width="1.51"/><path d="M2011,938L2209,909L2016,830Z" fill="#4ee0b1" stroke="#4ee0b1" stroke-width="1.51"/><path d="M1790,1339L1931,1349L1871,1162Z" fill="#1ddbb7" stroke="#1ddbb7" stroke-width="1.51"/><path d="M2248,1444L1931,1349L1583,1375Z" fill="#00dab8" stroke="#00dab8" stroke-width="1.51"/><path d="M-383,1027L-357,1240L-74,1199Z" fill="#a3ced0" stroke="#a3ced0" stroke-width="1.51"/><path d="M2097,1196L2209,909L2011,938Z" fill="#2ddcb6" stroke="#2ddcb6" stroke-width="1.51"/><path d="M2159,527L2285,787L2180,402Z" fill="#81e3ac" stroke="#81e3ac" stroke-width="1.51"/><path d="M1931,1349L2097,1196L1871,1162Z" fill="#00dab8" stroke="#00dab8" stroke-width="1.51"/><path d="M2252,1212L2285,787L2209,909Z" fill="#3bddb4" stroke="#3bddb4" stroke-width="1.51"/><path d="M2209,909L2285,787L2016,830Z" fill="#58e2af" stroke="#58e2af" stroke-width="1.51"/><path d="M2180,402L2299,39L2090,208Z" fill="#abe7b3" stroke="#abe7b3" stroke-width="1.51"/><path d="M2285,787L2299,39L2180,402Z" fill="#98e8ac" stroke="#98e8ac" stroke-width="1.51"/><path d="M-357,1240L-357,1431L-87,1454Z" fill="#a3ced0" stroke="#a3ced0" stroke-width="1.51"/><path d="M-383,1027L-357,1431L-357,1240Z" fill="#a3ced0" stroke="#a3ced0" stroke-width="1.51"/><path d="M2299,39L2312,-98L2040,-30Z" fill="#a3ced0" stroke="#a3ced0" stroke-width="1.51"/><path d="M2285,787L2312,-98L2299,39Z" fill="#abeaaf" stroke="#abeaaf" stroke-width="1.51"/><path d="M2312,-98L2274,-218L2040,-30Z" fill="#a3ced0" stroke="#a3ced0" stroke-width="1.51"/><path d="M2248,1444L2252,1212L2097,1196Z" fill="#00dab8" stroke="#00dab8" stroke-width="1.51"/><path d="M2097,1196L2252,1212L2209,909Z" fill="#00dab8" stroke="#00dab8" stroke-width="1.51"/><path d="M1931,1349L2248,1444L2097,1196Z" fill="#00dab8" stroke="#00dab8" stroke-width="1.51"/><path d="M2252,1212L2248,1444L2285,787Z" fill="#00dab8" stroke="#00dab8" stroke-width="1.51"/><path d="M1229,1474L2248,1444L1583,1375Z" fill="#41deb3" stroke="#41deb3" stroke-width="1.51"/></svg>